<?xml version="1.0" encoding="utf-8"?>
<!-- Generator: Adobe Illustrator 26.0.3, SVG Export Plug-In . SVG Version: 6.00 Build 0)  -->
<svg version="1.1" xmlns="http://www.w3.org/2000/svg" xmlns:xlink="http://www.w3.org/1999/xlink" x="0px" y="0px"
	 viewBox="0 0 1000 1000" style="enable-background:new 0 0 1000 1000;" xml:space="preserve">
<style type="text/css">
	.st0{fill:url(#SVGID_1_);}
	.st1{display:none;}
	.st2{display:inline;fill:#60A55F;}
	.st3{display:inline;fill:url(#SVGID_00000147193079061579096230000003503644388162525623_);}
	.st4{fill:url(#SVGID_00000029043432996687791480000012281724115452204454_);}
	.st5{fill:#9DA65D;}
	.st6{fill:#6C733D;}
</style>
<g id="Layer_1">
	<linearGradient id="SVGID_1_" gradientUnits="userSpaceOnUse" x1="57.5899" y1="-317.2003" x2="1057.9844" y2="1132.5504">
		<stop  offset="0" style="stop-color:#2B3D54"/>
		<stop  offset="0.4028" style="stop-color:#28535B"/>
		<stop  offset="1" style="stop-color:#247065"/>
	</linearGradient>
	<path class="st0" d="M487.1,770.9h-4.3C276.7,770.9,108,602.3,108,396.1v-4.3C108,185.7,276.7,17,482.8,17h270.5
		c8.9,0,17.5,1.1,25.8,3.1c47.4,11.7,82.8,54.6,82.8,105.5v270.5C861.9,602.3,693.3,770.9,487.1,770.9z"/>
</g>
<g id="Layer_2" class="st1">
	<path class="st2" d="M754,152.8c0,0,32.9,159.9-384.9,293.6c-31.5,10.1-61,25.9-86.5,47.1C230.3,536.9,169.2,619,246,737
		c0,0,56,62,124,85c0,0-85.3-105.1-39.2-197.3c15.3-30.6,42.1-54,74.2-65.9c48.1-17.9,157-47.9,268.9-90.8
		c107-41,156.7-114.6,172-190C858,219,817,153,754,152.8z"/>
</g>
<g id="Layer_2_copy" class="st1">
	
		<linearGradient id="SVGID_00000096056467992315010450000005370450802831197073_" gradientUnits="userSpaceOnUse" x1="157.4516" y1="797.7923" x2="650.3815" y2="388.9506">
		<stop  offset="1.581320e-02" style="stop-color:#2B3D54"/>
		<stop  offset="2.425508e-02" style="stop-color:#2B3E54"/>
		<stop  offset="0.6913" style="stop-color:#51885C"/>
		<stop  offset="1" style="stop-color:#60A55F"/>
	</linearGradient>
	<path style="display:inline;fill:url(#SVGID_00000096056467992315010450000005370450802831197073_);" d="M754,152.8
		c0,0,32.9,159.9-384.9,293.6c-31.5,10.1-61,25.9-86.5,47.1C230.3,536.9,169.2,619,246,737c0,0,56,62,124,85
		c0,0-85.3-105.1-39.2-197.3c15.3-30.6,42.1-54,74.2-65.9c48.1-17.9,157-47.9,268.9-90.8c107-41,156.7-114.6,172-190
		C858,219,817,153,754,152.8z"/>
</g>
<g id="Layer_2_copy_2">
	
		<linearGradient id="SVGID_00000039833713318618036830000017615354955874431148_" gradientUnits="userSpaceOnUse" x1="175.895" y1="793.4942" x2="711.3718" y2="349.3635">
		<stop  offset="1.581320e-02" style="stop-color:#2B3D54"/>
		<stop  offset="2.425508e-02" style="stop-color:#2B3E54"/>
		<stop  offset="0.6913" style="stop-color:#51885C"/>
		<stop  offset="1" style="stop-color:#60A55F"/>
	</linearGradient>
	<path style="fill:url(#SVGID_00000039833713318618036830000017615354955874431148_);" d="M760.8,16.8c0,0,35.8,173.7-418.1,318.9
		c-34.2,11-66.2,28.2-93.9,51.1C192,434.1,125.6,523.2,209,651.4c0,0,60.8,67.4,134.7,92.3c4.8,0.2-0.1-18.4-30.2-48.2l30.2,48.2
		c0,0,186.8,88,372.3-52.3c0,0,73.1-54.1,112.2-142.1c0,0-305.3,234.6-514.7,146.2c-21.6-42.5-42-106.8-12.3-166.1
		c16.6-33.3,45.8-58.6,80.7-71.6c52.2-19.4,170.6-52.1,292.2-98.6c116.2-44.5,170.2-124.5,186.8-206.4
		C873.9,88.7,829.3,17,760.8,16.8z"/>
	<g>
		<path class="st5" d="M187.7,876.4c0,10.4,0,13.8,9.5,13.8c9.1,0,11.2-0.4,14.9-0.4c12.3,0,12.7,1.9,12.7,11.7v1.9
			c0,15.5,0,17.7-14.7,17.7c-4.3,0-11.9-0.4-15.1-0.4c-7.1,0-7.3,1.5-7.3,12.5v32.8c0,8.6,0,17.3-12.9,17.3H164
			c-13,0-13-8.6-13-17.3V847.2c0-6.5,0-17.3,13-17.3h53.5c5.4,0,10.1,2.2,10.1,6.5v18.3c0,4.3-1.7,5.4-9.5,5.4
			c-5.4,0-6.9-0.4-17-0.4C187.7,859.7,187.7,863.6,187.7,876.4z"/>
		<path class="st5" d="M304.9,951.9c9.1,0,10.1,4.7,10.1,11.2v2.8c0,8.6,0,17.3-12.9,17.3h-48.8c-13,0-13-8.6-13-17.3V847.2
			c0-8.6,0-17.3,13-17.3h10.8c12.9,0,12.9,8.6,12.9,17.3v93c0,5.2,0,11.9,6.7,12.1C295.2,952.3,300.3,951.9,304.9,951.9z"/>
		<path class="st5" d="M326.7,889.1c0-34.7,3.2-60.2,48.8-60.2c43.4,0,46.4,25,46.4,59.3c0,12.9,0.6,25.7,0.6,37.1
			c0,34.1-5.4,58.9-47,58.9c-45.5,0-48.8-25.5-48.8-60c0-5.8,0.2-11.7,0.2-17.7C326.9,900.5,326.7,894.7,326.7,889.1z M363.6,871v68
			c0,6.5,0,15.1,10.8,15.1c10.8,0,10.8-8.6,10.8-15.1v-68c0-5.4,0-11.9-10.8-11.9C363.6,859.1,363.6,865.6,363.6,871z"/>
		<path class="st5" d="M491.7,830c32.2,0,41.2,23.1,41.2,48.6c0,15.5-0.2,25.5-12.5,35.8c-6,5.2-9.9,2.2-9.9,10.4
			c0,8.8,2.8,19.6,9.9,19.6c3.9,0,6.3-1.1,6.9-1.1c6.9,0,8,5.8,8,15.8c0,4.7-0.2,10.6-0.2,17c0,4.3-1.7,8.2-12.9,8.2
			c-19.9,0-30-14.7-34.1-30.6c-5.2-20.1-11.7-23.5-12.9-23.5c-1.7,0-1.7,3.5-1.7,5.2v30.6c0,8.6,0,17.3-12.9,17.3h-15.1
			c-8.6,0-8.6-8.6-8.6-17.3V847.2c0-8.6,0-17.3,13-17.3H491.7z M473.2,868.4c0,2.8,0.2,7.8,0.2,12.3c0,4.3-0.2,8.2-0.2,10.8
			c0,7.1,1.3,8.4,9.9,8.4c9.7,0,11.9-9.5,11.9-19.2s-2.2-21.6-11.9-21.6C474.5,859.1,473.2,860.6,473.2,868.4z"/>
		<path class="st5" d="M655.1,972.4c0,9.9-6.7,10.8-19,10.8h-11.4c-13.4,0-6.7-32.4-15.3-32.4h-17.3c-8.6,0-3.7,32.4-16.6,32.4
			h-10.1c-11.2,0-17.9-0.9-17.9-10.8c0-13,5.2-24.4,22-125.2c1.7-10.8,6-17.3,14.7-17.3h33.2c8.6,0,12.9,6.5,15.1,17.3
			C647.1,935.7,655.1,959.5,655.1,972.4z M592.3,915c0,3.5,1.5,3.5,8.4,3.5c6.7,0,8.4,0,8.4-3.2c0-0.9,0-1.9-0.2-3.5
			c-2.6-21.1-3.5-47.3-8.2-47.3c-4.5,0-6,25.9-8.2,47.3C592.3,913.1,592.3,914.1,592.3,915z"/>
		<path class="st6" d="M678.4,983.2c-3.9,0-9.9,0-9.9-8.6V953c0-8.6,6-8.6,9.9-8.6h17.5c5,0,9.3,0,9.3,8.6v21.6
			c0,8.6-4.3,8.6-9.3,8.6H678.4z"/>
		<path class="st5" d="M756.7,965.9c0,8.6,0,17.3-12.9,17.3H733c-12.9,0-12.9-8.6-12.9-17.3V847.2c0-8.6,0-17.3,12.9-17.3h10.8
			c12.9,0,12.9,8.6,12.9,17.3V965.9z"/>
		<path class="st5" d="M771.2,889.1c0-34.7,3.2-60.2,48.8-60.2c43.4,0,46.4,25,46.4,59.3c0,12.9,0.6,25.7,0.6,37.1
			c0,34.1-5.4,58.9-47,58.9c-45.5,0-48.8-25.5-48.8-60c0-5.8,0.2-11.7,0.2-17.7C771.4,900.5,771.2,894.7,771.2,889.1z M808.1,871v68
			c0,6.5,0,15.1,10.8,15.1c10.8,0,10.8-8.6,10.8-15.1v-68c0-5.4,0-11.9-10.8-11.9C808.1,859.1,808.1,865.6,808.1,871z"/>
	</g>
</g>
</svg>
