<svg id="Layer_1" data-name="Layer 1" xmlns="http://www.w3.org/2000/svg" xmlns:xlink="http://www.w3.org/1999/xlink" viewBox="0 0 306.08 52"><defs><style>.cls-1{fill:#60a65f;}.cls-2{fill:#2c5b61;}.cls-3{fill:url(#linear-gradient);}.cls-4{fill:url(#linear-gradient-2);}</style><linearGradient id="linear-gradient" x1="8.24" y1="129.93" x2="75.35" y2="32.67" gradientTransform="matrix(1, 0, 0, -1, 0, 118)" gradientUnits="userSpaceOnUse"><stop offset="0" stop-color="#2b3d54"/><stop offset="0.4" stop-color="#28535b"/><stop offset="1" stop-color="#247065"/></linearGradient><linearGradient id="linear-gradient-2" x1="16.21" y1="55.38" x2="52.13" y2="85.18" gradientTransform="matrix(1, 0, 0, -1, 0, 118)" gradientUnits="userSpaceOnUse"><stop offset="0.02" stop-color="#2b3d54"/><stop offset="0.03" stop-color="#2c3f54"/><stop offset="0.69" stop-color="#51895c"/><stop offset="1" stop-color="#60a65f"/></linearGradient></defs><path class="cls-1" d="M91,25.4c0,3.5,0,4.6,3.2,4.6,3,0,3.7-.1,5-.1,4.1,0,4.2.6,4.2,3.9v.6c0,5.2,0,5.9-4.9,5.9-1.4,0-4-.1-5-.1-2.4,0-2.4.5-2.4,4.2V55.3c0,2.9,0,5.8-4.3,5.8H83.2c-4.3,0-4.3-2.9-4.3-5.8V15.7c0-2.2,0-5.8,4.3-5.8H101c1.8,0,3.4.7,3.4,2.2v6.1c0,1.4-.6,1.8-3.2,1.8-1.8,0-2.3-.1-5.7-.1C91,19.9,91,21.2,91,25.4Z" transform="translate(-11.62 -9.6)"/><path class="cls-1" d="M130.1,50.6c3,0,3.4,1.6,3.4,3.7v.9c0,2.9,0,5.8-4.3,5.8H112.9c-4.3,0-4.3-2.9-4.3-5.8V15.6c0-2.9,0-5.8,4.3-5.8h3.6c4.3,0,4.3,2.9,4.3,5.8v31c0,1.7,0,4,2.2,4C126.9,50.8,128.6,50.6,130.1,50.6Z" transform="translate(-11.62 -9.6)"/><path class="cls-1" d="M137.4,29.7c0-11.6,1.1-20.1,16.3-20.1,14.5,0,15.5,8.4,15.5,19.8,0,4.3.2,8.6.2,12.4,0,11.4-1.8,19.7-15.7,19.7-15.2,0-16.3-8.5-16.3-20,0-1.9.1-3.9.1-5.9S137.4,31.6,137.4,29.7Zm12.3-6.1V46.3c0,2.2,0,5,3.6,5s3.6-2.9,3.6-5V23.6c0-1.8,0-4-3.6-4S149.7,21.8,149.7,23.6Z" transform="translate(-11.62 -9.6)"/><path class="cls-1" d="M192.5,10c10.7,0,13.8,7.7,13.8,16.2,0,5.2-.1,8.5-4.2,12-2,1.7-3.3.7-3.3,3.5,0,3,.9,6.6,3.3,6.6a8.52,8.52,0,0,0,2.3-.4c2.3,0,2.7,1.9,2.7,5.3,0,1.6-.1,3.5-.1,5.7,0,1.4-.6,2.7-4.3,2.7-6.6,0-10-4.9-11.4-10.2-1.7-6.7-3.9-7.8-4.3-7.8-.6,0-.6,1.2-.6,1.7V55.5c0,2.9,0,5.8-4.3,5.8h-5c-2.9,0-2.9-2.9-2.9-5.8V15.9c0-2.9,0-5.8,4.3-5.8h14Zm-6.2,12.8c0,.9.1,2.6.1,4.1s-.1,2.7-.1,3.6c0,2.4.4,2.8,3.3,2.8,3.2,0,4-3.2,4-6.4s-.7-7.2-4-7.2C186.7,19.7,186.3,20.2,186.3,22.8Z" transform="translate(-11.62 -9.6)"/><path class="cls-1" d="M247,57.5c0,3.3-2.2,3.6-6.3,3.6h-3.8c-4.5,0-2.2-10.8-5.1-10.8H226c-2.9,0-1.2,10.8-5.5,10.8H217c-3.7,0-6-.3-6-3.6,0-4.3,1.7-8.1,7.3-41.8.6-3.6,2-5.8,4.9-5.8h11.1c2.9,0,4.3,2.2,5,5.8C244.3,45.2,247,53.2,247,57.5ZM226,38.3c0,1.2.5,1.2,2.8,1.2s2.8,0,2.8-1.1a6.25,6.25,0,0,0-.1-1.2c-.9-7.1-1.2-15.8-2.7-15.8s-2,8.6-2.7,15.8A4.91,4.91,0,0,0,226,38.3Z" transform="translate(-11.62 -9.6)"/><path class="cls-1" d="M280.9,55.3c0,2.9,0,5.8-4.3,5.8H273c-4.3,0-4.3-2.9-4.3-5.8V15.7c0-2.9,0-5.8,4.3-5.8h3.6c4.3,0,4.3,2.9,4.3,5.8Z" transform="translate(-11.62 -9.6)"/><path class="cls-1" d="M285.7,29.7c0-11.6,1.1-20.1,16.3-20.1,14.5,0,15.5,8.4,15.5,19.8,0,4.3.2,8.6.2,12.4,0,11.4-1.8,19.7-15.7,19.7-15.2,0-16.3-8.5-16.3-20,0-1.9.1-3.9.1-5.9S285.7,31.6,285.7,29.7ZM298,23.6V46.3c0,2.2,0,5,3.6,5s3.6-2.9,3.6-5V23.6c0-1.8,0-4-3.6-4S298,21.8,298,23.6Z" transform="translate(-11.62 -9.6)"/><path class="cls-2" d="M254.8,61.1c-1.3,0-3.3,0-3.3-2.9V51c0-2.9,2-2.9,3.3-2.9h5.8c1.7,0,3.1,0,3.1,2.9v7.2c0,2.9-1.4,2.9-3.1,2.9Z" transform="translate(-11.62 -9.6)"/><g id="Layer_1-2" data-name="Layer 1"><path class="cls-3" d="M37.06,61.07h-.3A25.21,25.21,0,0,1,11.62,35.93v-.3A25.21,25.21,0,0,1,36.76,10.49H54.91a7.59,7.59,0,0,1,1.73.21,7.33,7.33,0,0,1,5.56,7.08V35.93A25.22,25.22,0,0,1,37.06,61.07Z" transform="translate(-11.62 -9.6)"/></g><g id="Layer_2_copy_2" data-name="Layer 2 copy 2"><path class="cls-4" d="M55.46,10.51s2.39,11.66-28,21.4a19,19,0,0,0-6.31,3.43c-3.81,3.16-8.26,9.15-2.66,17.75,0,0,4.08,4.51,9,6.19.32,0,0-1.24-2-3.23l2,3.23a25.31,25.31,0,0,0,25-3.51A26.55,26.55,0,0,0,60,46.24S39.5,62,25.45,56.05C24,53.2,22.63,48.88,24.62,44.9A9.83,9.83,0,0,1,30,40.1c3.51-1.3,11.44-3.49,19.6-6.62,7.8-3,11.42-8.35,12.53-13.84C63,15.34,60.05,10.53,55.46,10.51Z" transform="translate(-11.62 -9.6)"/></g></svg>