<svg xmlns="http://www.w3.org/2000/svg" width="32.083" height="40" viewBox="0 0 32.083 40">
  <path id="Icon_simple-gumtree" data-name="Icon simple-gumtree" d="M30.987,10.867a1.107,1.107,0,0,1-.525-.95,10.913,10.913,0,0,0-21.734,0,1.111,1.111,0,0,1-.523.95,10.94,10.94,0,0,0,3.478,19.516,2.984,2.984,0,0,0,1.9.1c.632-.313,1.267-3.053.95-3.688a3.591,3.591,0,0,0-1.69-.843A6.452,6.452,0,0,1,8.1,19.731,6.347,6.347,0,0,1,9.786,15.4a5.93,5.93,0,0,1,1.58-1.262,3.735,3.735,0,0,0,1.9-3.273,6.068,6.068,0,0,1,.315-2,6.44,6.44,0,0,1,12.237,0,6.069,6.069,0,0,1,.315,2,3.515,3.515,0,0,0,1.9,3.255,4.432,4.432,0,0,1,1.577,1.253A6.3,6.3,0,0,1,31.3,19.7a6.4,6.4,0,0,1-6.434,6.435,7.389,7.389,0,0,0-7.385,7.36V37.7a3.933,3.933,0,0,0,.317,1.9c.525.527,3.27.527,3.8,0a3.659,3.659,0,0,0,.325-1.9V33.4a2.854,2.854,0,0,1,2.855-2.855,10.841,10.841,0,0,0,6.234-19.729l-.025.055Z" transform="translate(-3.563)" fill="#2b3d54"/>
</svg>
